<svg xmlns="http://www.w3.org/2000/svg" version="1.1" xmlns:xlink="http://www.w3.org/1999/xlink" xmlns:svgjs="http://svgjs.dev/svgjs" width="2000" height="388" viewBox="0 0 2000 388"><g transform="matrix(1,0,0,1,-1.211945986184901,-1.1958805517251392)"><svg viewBox="0 0 396 77" data-background-color="#ffffff" preserveAspectRatio="xMidYMid meet" height="388" width="2000" xmlns="http://www.w3.org/2000/svg" xmlns:xlink="http://www.w3.org/1999/xlink"><g id="tight-bounds" transform="matrix(1,0,0,1,0.23996530526460447,0.2373268105227737)"><svg viewBox="0 0 395.52 76.52531851022103" height="76.52531851022103" width="395.52"><g><svg viewBox="0 0 530.9686602238565 102.73196258741896" height="76.52531851022103" width="395.52"><g transform="matrix(1,0,0,1,135.4486602238565,16.719619913859823)"><svg viewBox="0 0 395.52000000000004 69.29272275969932" height="69.29272275969932" width="395.52000000000004"><g id="textblocktransform"><svg viewBox="0 0 395.52000000000004 69.29272275969932" height="69.29272275969932" width="395.52000000000004" id="textblock"><g><svg viewBox="0 0 395.52000000000004 69.29272275969932" height="69.29272275969932" width="395.52000000000004"><g transform="matrix(1,0,0,1,0,0)"><svg width="395.52000000000004" viewBox="2.1911805611129997 -38.18 286.77175189875044 50.58" height="69.29272275969932" data-palette-color="#5cb55e"><g transform="matrix(1,0,0,1,0,0)"><g><svg width="12.379382459863438" viewBox="1.78 -36.36 74.21 36.36" height="6.065305090382852" data-palette-color="#5cb55e" id="scriptelement" x="274.01969122993177" y="-11.786202545191426"><path d="M12.91-30.02L1.78-30.02 1.78-36.36 31.64-36.36 31.64-30.02 20.51-30.02 20.51 0 12.91 0 12.91-30.02ZM36.57 0L36.57-36.36 46.06-36.36 56.07-11.93 56.5-11.93 66.51-36.36 75.99-36.36 75.99 0 68.53 0 68.53-23.67 68.23-23.67 58.82-0.18 53.74-0.18 44.33-23.76 44.03-23.76 44.03 0 36.57 0Z" opacity="1" transform="matrix(1,0,0,1,0,0)" fill="#5cb55e" class="undefined-123" data-fill-palette-color="primary" id="tk-123"></path></svg></g></g><path d="M271.456-8.754C271.456-13.588 275.375-17.507 280.209-17.507 285.044-17.507 288.963-13.588 288.963-8.754 288.963-3.919 285.044 0 280.209 0 275.375 0 271.456-3.919 271.456-8.754ZM280.209-0.4C284.823-0.4 288.563-4.14 288.563-8.754 288.563-13.367 284.823-17.107 280.209-17.107 275.596-17.107 271.856-13.367 271.856-8.754 271.856-4.14 275.596-0.4 280.209-0.4Z" fill="#5cb55e" id="scriptcircle" data-fill-palette-color="primary"></path><g class="wordmark-text-0" data-fill-palette-color="primary" id="text-0"><path d="M13.38 0.59L13.38 0.59Q10.28 0.59 8.24 0.02 6.2-0.54 4.97-1.38 3.74-2.22 3.08-3.05L3.08-3.05Q2.86-3.37 2.69-3.66 2.51-3.96 2.44-4.32L2.44-4.32Q2.34-4.81 2.25-5.6 2.15-6.4 2.22-7.45L2.22-7.45Q2.25-7.89 2.39-8.06L2.39-8.06Q2.56-8.25 2.95-8.35L2.95-8.35Q3.66-8.52 4.8-8.65 5.93-8.79 6.42-8.79L6.42-8.79Q6.93-8.79 7.25-8.59 7.57-8.4 8.01-7.93L8.01-7.93Q8.5-7.42 9.69-6.63 10.89-5.83 13.38-5.83L13.38-5.83Q15.77-5.83 16.99-6.84 18.21-7.84 18.21-9.62L18.21-9.62Q18.21-10.57 17.64-11.41 17.07-12.26 15.55-13.1 14.04-13.94 11.23-14.87L11.23-14.87Q6.59-16.43 4.54-18.75 2.49-21.07 2.49-25.2L2.49-25.2Q2.49-28.61 4.15-30.91 5.81-33.2 8.74-34.38 11.67-35.55 15.5-35.55L15.5-35.55Q18.46-35.55 20.4-34.85 22.34-34.16 23.41-33.29 24.49-32.42 24.8-31.88L24.8-31.88Q25-31.57 25.06-31.41 25.12-31.25 25.15-30.98L25.15-30.98Q25.22-30.22 25.2-29.3 25.17-28.37 25.02-27.2L25.02-27.2Q24.95-26.81 24.76-26.66L24.76-26.66Q24.58-26.54 24.22-26.54L24.22-26.54Q21.85-26.49 20.56-26.78L20.56-26.78Q20.04-26.9 19.87-27.03 19.7-27.15 19.43-27.42L19.43-27.42Q19.04-27.88 18.2-28.5 17.36-29.13 15.5-29.13L15.5-29.13Q12.94-29.13 11.87-27.97 10.79-26.81 10.79-25.37L10.79-25.37Q10.79-23.66 12.38-22.69 13.96-21.73 17.38-20.51L17.38-20.51Q20.24-19.51 22.29-18.33 24.34-17.16 25.43-15.33 26.51-13.5 26.51-10.5L26.51-10.5Q26.51-6.76 24.79-4.3 23.07-1.83 20.1-0.62 17.14 0.59 13.38 0.59ZM47.56-25.61L47.56-25.61Q51.12-25.61 53.43-24.01 55.73-22.41 56.87-19.62 58.01-16.82 58.01-13.21L58.01-13.21Q58.01-9.3 56.67-6.18 55.34-3.05 52.76-1.22 50.17 0.61 46.34 0.61L46.34 0.61Q44.36 0.61 43.08 0.16 41.79-0.29 41.03-0.92 40.26-1.54 39.82-2.05L39.82-2.05 39.72-2.05 39.72 8.35Q39.72 8.94 39.48 9.25L39.48 9.25Q38.45 10.6 36.47 12.16L36.47 12.16Q36.13 12.4 35.86 12.4L35.86 12.4Q35.57 12.4 35.25 12.16L35.25 12.16Q34.2 11.35 33.48 10.64 32.76 9.94 32.25 9.25L32.25 9.25Q32 8.94 32 8.35L32 8.35 32-21.75Q32-22.34 32.25-22.66L32.25-22.66Q32.76-23.34 33.48-24.05 34.2-24.76 35.25-25.56L35.25-25.56Q35.57-25.81 35.91-25.81L35.91-25.81Q36.23-25.81 36.57-25.56L36.57-25.56Q37.6-24.76 38.33-24.02 39.06-23.29 39.62-22.51L39.62-22.51 39.74-22.51Q40.16-23.02 41.01-23.75 41.87-24.49 43.44-25.05 45.02-25.61 47.56-25.61ZM44.55-5.62L44.55-5.62Q47.19-5.62 48.64-7.46 50.1-9.3 50.1-12.79L50.1-12.79Q50.1-19.38 44.68-19.38L44.68-19.38Q42.38-19.38 41.28-18.44 40.18-17.5 39.72-16.46L39.72-16.46 39.72-11.16Q39.72-8.79 40.94-7.2 42.16-5.62 44.55-5.62ZM70.97-22.17L70.97-20.36 71.06-20.36Q72.9-25.44 77.66-25.44L77.66-25.44Q78.27-25.44 78.66-25.38 79.05-25.32 79.19-25.27L79.19-25.27Q79.56-25.15 79.56-24.71L79.56-24.71 79.56-18.82Q79.56-18.07 78.68-18.41L78.68-18.41Q78.39-18.53 77.84-18.66 77.29-18.8 76.31-18.8L76.31-18.8Q73.8-18.8 72.38-16.96 70.97-15.11 70.97-11.94L70.97-11.94 70.97-1.29Q70.97-0.56 70.66-0.28 70.36 0 69.62 0L69.62 0 64.59 0Q63.86 0 63.56-0.28 63.25-0.56 63.25-1.29L63.25-1.29 63.25-21.75Q63.25-22.34 63.5-22.66L63.5-22.66Q64.01-23.34 64.73-24.05 65.45-24.76 66.5-25.56L66.5-25.56Q66.69-25.71 66.89-25.76 67.08-25.81 67.23-25.81L67.23-25.81Q67.57-25.81 67.91-25.56L67.91-25.56Q69.94-23.97 70.75-22.85L70.75-22.85Q70.97-22.56 70.97-22.17L70.97-22.17ZM82.07-33.2L82.07-33.2Q82.07-33.52 82.27-33.76 82.46-34.01 82.78-34.4L82.78-34.4Q83.46-35.18 84.37-36.05 85.27-36.91 86.2-37.72L86.2-37.72Q86.78-38.18 87.08-38.18L87.08-38.18Q87.37-38.18 87.98-37.72L87.98-37.72Q89.96-36.01 91.35-34.4L91.35-34.4Q91.67-34.03 91.87-33.78 92.08-33.52 92.08-33.2L92.08-33.2Q92.08-32.89 91.87-32.64 91.67-32.4 91.33-31.98L91.33-31.98Q90.67-31.23 89.79-30.36 88.91-29.49 87.98-28.71L87.98-28.71Q87.64-28.42 87.44-28.33 87.25-28.25 87.08-28.25L87.08-28.25Q86.91-28.25 86.72-28.33 86.54-28.42 86.15-28.71L86.15-28.71Q85.17-29.49 84.32-30.36 83.46-31.23 82.78-32.03L82.78-32.03Q82.46-32.42 82.27-32.65 82.07-32.89 82.07-33.2ZM90.91-23.71L90.91-1.29Q90.91-0.56 90.61-0.28 90.3 0 89.57 0L89.57 0 84.54 0Q83.81 0 83.5-0.28 83.2-0.56 83.2-1.29L83.2-1.29 83.2-23.71Q83.2-24.44 83.5-24.72 83.81-25 84.54-25L84.54-25 89.57-25Q90.3-25 90.61-24.72 90.91-24.44 90.91-23.71L90.91-23.71ZM104.02 0.61L104.02 0.61Q100.43 0.61 98.32-1.4 96.21-3.42 96.21-6.96L96.21-6.96Q96.21-8.79 96.88-10.36 97.55-11.94 99.22-13.15 100.89-14.36 103.91-15.09 106.92-15.82 111.61-15.94L111.61-15.94Q111.61-18.16 110.5-19.14 109.39-20.12 107.17-20.12L107.17-20.12Q105.17-20.12 103.9-19.43 102.63-18.75 102.31-18.51L102.31-18.51Q101.97-18.21 101.48-18.29L101.48-18.29Q100.82-18.38 100.08-18.63 99.33-18.87 98.48-19.19L98.48-19.19Q98.35-19.24 98.21-19.35 98.06-19.46 98.04-19.68L98.04-19.68Q98.04-19.8 98.06-19.98 98.09-20.17 98.18-20.65L98.18-20.65Q98.28-21.14 98.48-21.86 98.67-22.58 98.84-22.97L98.84-22.97Q99.06-23.39 99.57-23.75L99.57-23.75Q99.99-24.1 102.09-24.85 104.19-25.61 108.17-25.61L108.17-25.61Q119.13-25.61 119.13-14.94L119.13-14.94 119.13-1.12Q119.13-0.66 118.87-0.33 118.62 0 118.01 0L118.01 0 114.35 0Q113.95 0 113.65-0.11 113.34-0.22 113.08-0.54L113.08-0.54 111.56-2.49 111.39-2.49Q110.27-0.85 108.38-0.12 106.48 0.61 104.02 0.61ZM106.7-5.05L106.7-5.05Q108.95-5.05 110.1-6.2 111.24-7.35 111.56-8.57L111.56-8.57 111.56-11.28Q108.17-11.28 106.47-10.75 104.78-10.23 104.21-9.39 103.65-8.54 103.65-7.57L103.65-7.57Q103.65-6.15 104.53-5.6 105.41-5.05 106.7-5.05ZM149.89-15.55L149.89-15.55 149.89-1.29Q149.89-0.56 149.58-0.28 149.28 0 148.55 0L148.55 0 143.52 0Q142.79 0 142.48-0.28 142.18-0.56 142.18-1.29L142.18-1.29 142.18-14.28Q142.18-16.94 141.05-18.16 139.93-19.38 138-19.38L138-19.38Q136.07-19.38 135.03-18.55 134-17.72 133.43-16.46L133.43-16.46 133.43-1.29Q133.43-0.56 133.13-0.28 132.82 0 132.09 0L132.09 0 127.06 0Q126.33 0 126.03-0.28 125.72-0.56 125.72-1.29L125.72-1.29 125.72-21.75Q125.72-22.34 125.96-22.66L125.96-22.66Q126.48-23.34 127.2-24.05 127.92-24.76 128.97-25.56L128.97-25.56Q129.28-25.81 129.58-25.81L129.58-25.81Q129.85-25.81 130.19-25.56L130.19-25.56Q131.21-24.76 131.95-24.02 132.68-23.29 133.24-22.51L133.24-22.51 133.36-22.51Q133.78-23.05 134.61-23.77 135.44-24.49 136.94-25.05 138.44-25.61 140.78-25.61L140.78-25.61Q143.08-25.61 145.15-24.68 147.23-23.75 148.56-21.56 149.89-19.36 149.89-15.55ZM166.37 0.61L166.37 0.61Q158.21 0.61 158.21-7.86L158.21-7.86 158.21-19.31 155.45-19.31Q154.72-19.31 154.44-19.62 154.16-19.92 154.16-20.65L154.16-20.65 154.16-23.66Q154.16-24.39 154.44-24.69 154.72-25 155.45-25L155.45-25 158.21-25 158.21-28.93Q158.21-29.52 158.46-29.83L158.46-29.83Q159.48-31.18 161.46-32.74L161.46-32.74Q161.8-32.98 162.07-32.98L162.07-32.98Q162.36-32.98 162.66-32.74L162.66-32.74Q163.71-31.93 164.43-31.23 165.15-30.52 165.66-29.83L165.66-29.83Q165.9-29.52 165.9-28.93L165.9-28.93 165.9-25 170.22-25Q170.96-25 171.24-24.69 171.52-24.39 171.52-23.66L171.52-23.66 171.52-20.65Q171.52-19.92 171.24-19.62 170.96-19.31 170.22-19.31L170.22-19.31 165.9-19.31 165.9-9.2Q165.9-5.3 168.74-5.3L168.74-5.3Q169.17-5.3 169.54-5.38 169.91-5.47 170.18-5.57L170.18-5.57Q170.69-5.76 170.9-5.71 171.1-5.66 171.27-5.18L171.27-5.18 172.69-1.39Q172.91-0.78 172.4-0.51L172.4-0.51Q172.03-0.34 170.63 0.13 169.22 0.61 166.37 0.61ZM188.75 0.61L188.75 0.61Q182.6 0.61 179.01-2.66 175.42-5.93 175.42-12.4L175.42-12.4Q175.42-19.04 179.15-22.33 182.87-25.61 189.09-25.61L189.09-25.61Q195.1-25.61 198.71-22.38 202.33-19.14 202.33-12.84L202.33-12.84Q202.33-6.27 198.71-2.83 195.1 0.61 188.75 0.61ZM189-5.3L189-5.3Q191.68-5.3 193.05-6.97 194.42-8.64 194.42-12.7L194.42-12.7Q194.42-16.55 193.04-18.13 191.66-19.7 188.95-19.7L188.95-19.7Q186.34-19.7 184.83-18.01 183.33-16.31 183.33-12.5L183.33-12.5Q183.33-8.52 184.76-6.91 186.19-5.3 189-5.3Z" fill="#5cb55e" data-fill-palette-color="primary"></path><path d="M227.91-31.1L227.91-1.29Q227.91-0.56 227.61-0.28 227.3 0 226.57 0L226.57 0 221.37 0Q220.64 0 220.33-0.28 220.03-0.56 220.03-1.29L220.03-1.29 220.03-31.1Q220.03-31.81 220.27-32.18L220.27-32.18Q221.37-33.79 223.35-35.57L223.35-35.57Q223.71-35.86 223.98-35.86L223.98-35.86Q224.28-35.86 224.59-35.57L224.59-35.57Q225.67-34.64 226.4-33.8 227.13-32.96 227.67-32.18L227.67-32.18Q227.91-31.79 227.91-31.1L227.91-31.1ZM259.38 11.13L259.38 11.13Q259.06 11.21 258.75 11.21L258.75 11.21Q255.82 11.21 253.18 9.88 250.54 8.54 248.83 6.1 247.12 3.66 247.03 0.32L247.03 0.32Q241.02-0.66 237.52-4.99 234.01-9.33 234.01-17.04L234.01-17.04Q234.01-26.39 238.58-30.99 243.15-35.6 251.3-35.6L251.3-35.6Q258.94-35.6 263.38-31.09 267.83-26.59 267.83-17.75L267.83-17.75Q267.83-9.94 264.61-5.53 261.38-1.12 255.67 0.12L255.67 0.12Q255.77 2.25 256.88 3.06 257.99 3.88 259.65 4.2L259.65 4.2Q260.21 4.3 260.54 4.47 260.87 4.64 261.24 5.08L261.24 5.08Q262.14 6.37 262.8 8.08L262.8 8.08Q262.99 8.54 262.99 8.84L262.99 8.84Q262.99 9.28 262.51 9.64L262.51 9.64Q261.6 10.3 260.74 10.66 259.87 11.01 259.38 11.13ZM250.88-5.98L250.88-5.98Q255.28-5.98 257.4-9.13 259.53-12.28 259.53-17.31L259.53-17.31Q259.53-23.14 257.53-26.07 255.52-29 251.08-29L251.08-29Q242.32-29 242.32-17.46L242.32-17.46Q242.32-12.3 244.43-9.14 246.54-5.98 250.88-5.98Z" fill="#5c9fb5" data-fill-palette-color="secondary"></path></g></svg></g></svg></g></svg></g></svg></g><g><svg viewBox="0 0 102.73196258741896 102.73196258741896" height="102.73196258741896" width="102.73196258741896"><g><svg></svg></g><g id="icon-0"><svg viewBox="0 0 102.73196258741896 102.73196258741896" height="102.73196258741896" width="102.73196258741896"><g><path d="M0 51.366c0-28.369 22.997-51.366 51.366-51.366 28.369 0 51.366 22.997 51.366 51.366 0 28.369-22.997 51.366-51.366 51.366-28.369 0-51.366-22.997-51.366-51.366zM51.366 96.483c24.917 0 45.117-20.2 45.117-45.117 0-24.917-20.2-45.117-45.117-45.117-24.917 0-45.117 20.2-45.117 45.117 0 24.917 20.2 45.117 45.117 45.117z" data-fill-palette-color="accent" fill="#5cb55e" stroke="transparent"></path><ellipse rx="50.85232148077239" ry="50.85232148077239" cx="51.36598129370948" cy="51.36598129370948" fill="#5cb55e" stroke="transparent" stroke-width="0" fill-opacity="1" data-fill-palette-color="accent"></ellipse></g><g transform="matrix(1,0,0,1,32.44423460998139,24.907810335171824)"><svg viewBox="0 0 37.84349336745617 52.916341917075314" height="52.916341917075314" width="37.84349336745617"><g><svg xmlns="http://www.w3.org/2000/svg" xmlns:xlink="http://www.w3.org/1999/xlink" version="1.1" x="0" y="0" viewBox="16.00019215795415 5.000108503283597 64.3640541567505 89.9998914967164" enable-background="new 0 0 100 100" xml:space="preserve" height="52.916341917075314" width="37.84349336745617" class="icon-dxe-0" data-fill-palette-color="quaternary" id="dxe-0"><g fill="#ffffff" data-fill-palette-color="quaternary"><path fill="#ffffff" d="M77.519 38.74C75.554 32.008 71.898 19.479 79.278 11.696A3.96 3.96 0 0 0 79.887 7.087C79.091 5.593 77.411 4.778 75.701 5.053 74.571 5.25 47.782 10.212 26.114 30.053 5.467 50.503 22.802 72.899 22.95 73.066 23.235 73.469 30.143 82.982 41.73 85.684 42.162 85.782 42.516 86.057 42.713 86.45A38.8 38.8 0 0 0 47.627 93.811 3.3 3.3 0 0 0 49.995 95H50.182C51.037 95 51.853 94.676 52.491 94.066L53.395 93.211C54.663 91.992 54.771 89.978 53.641 88.612A18 18 0 0 1 53.091 87.924 1.31 1.31 0 0 1 52.875 86.617C53.042 86.155 53.415 85.831 53.897 85.723 59.037 84.593 64.186 81.999 69.188 77.999 83.113 66.885 79.791 49.284 78.533 42.681 78.354 41.619 77.961 40.283 77.519 38.74M55.457 38.593A3.35 3.35 0 0 0 54.455 34.141L53.443 33.443A3.3 3.3 0 0 0 51.537 32.853C51.301 32.853 51.055 32.873 50.82 32.932A3.35 3.35 0 0 0 48.658 34.494C45.022 40.675 36.777 56.88 38.86 73.674A1.37 1.37 0 0 1 38.221 75.03C37.769 75.325 37.209 75.315 36.747 75.03 32.168 72.161 29.426 68.485 29.298 68.308 28.748 67.61 16.09 51.16 31.598 35.8 43.144 25.228 56.548 19.214 65.766 16.04A1.38 1.38 0 0 1 67.152 16.315C67.329 16.472 67.732 16.914 67.584 17.622 65.678 26.476 68.311 35.537 69.883 40.961L69.971 41.256C70.325 42.445 70.6 43.389 70.718 44.086 71.828 49.943 74.423 63.661 64.222 71.798 58.729 76.181 53.285 78.421 48.027 78.471 42.741 62.07 52.372 43.811 55.457 38.593" data-fill-palette-color="quaternary"></path></g></svg></g></svg></g></svg></g></svg></g></svg></g><defs></defs></svg><rect width="395.52" height="76.52531851022103" fill="none" stroke="none" visibility="hidden"></rect></g></svg></g></svg>